<svg width="190" height="42" viewBox="0 0 190 42" fill="none" xmlns="http://www.w3.org/2000/svg">
<path d="M31.4923 15.4605H24.4723C24.0875 13.6821 21.9461 10.1254 16.4594 10.1254C13.5267 10.1716 8.44639 11.7421 7.01468 17.008C5.86931 21.2207 7.26099 24.645 8.10001 25.8306C11.2036 30.2281 16.0437 30.2496 18.0758 29.7107C14.8244 31.5399 10.5016 31.5507 8.74659 31.3274C1.35711 30.3112 0.27177 24.2139 0.156309 22.7357C0.0408485 21.2576 -0.929021 15.1141 3.87414 9.4325C7.71667 4.88722 13.6498 3.92028 16.1361 4.00496C26.5044 4.00496 30.5225 11.0954 31.4923 15.4605Z" fill="#EE163B"/>
<path d="M11.887 32.9443C8.94968 33.166 5.76758 32.1282 4.5437 31.5816C5.89844 33.1367 10.0766 36.247 15.9512 36.247C21.8259 36.247 25.3728 32.9674 26.412 31.3276V35.6003H31.8617V18.3477H15.651V24.1678H24.7262C21.8166 31.3045 15.5586 32.6671 11.887 32.9443Z" fill="white"/>
<path fill-rule="evenodd" clip-rule="evenodd" d="M52.1459 36.227C51.8791 36.2402 51.6105 36.2468 51.3404 36.2468C42.4434 36.2468 35.231 29.0281 35.231 20.1234C35.231 11.2187 42.4434 4 51.3404 4C52.9984 4 54.598 4.2507 56.1032 4.71629C56.255 4.87477 56.4044 5.23379 55.788 5.40204C54.2938 5.4254 51.0743 5.87172 50.1497 7.47004C49.6478 8.08927 48.4827 9.58011 47.8384 10.5896C47.0329 11.8514 45.4219 13.2184 44.3363 13.7442C44.1612 13.8143 43.825 14.0246 43.881 14.305C43.9511 14.6555 44.8616 17.109 47.8384 17.109C48.6555 17.074 50.7311 16.5412 52.4961 14.6905C54.7024 12.3772 57.7142 14.0947 59.6053 15.672C61.4964 17.2492 66.6991 23.6986 66.7768 24.7501C66.2896 26.3807 65.5516 27.9028 64.6075 29.2717C64.2668 29.5802 64.0024 29.26 63.9128 29.0614C61.7555 26.005 57.6675 21.5255 55.8931 19.6678C55.5009 19.3032 55.146 19.4224 55.0176 19.5276C54.8495 19.9482 55.0876 20.287 55.2277 20.4038C56.9207 21.7845 61.7294 27.8287 63.0448 29.4821C63.1987 29.6755 63.3048 29.8088 63.3525 29.8676C63.6688 30.2573 63.6206 30.534 63.5336 30.6611C63.5199 30.6769 63.5062 30.6927 63.4925 30.7084C62.6309 31.6985 61.6504 32.5824 60.5733 33.3376L60.5648 33.3436C60.2938 33.5281 59.9531 33.2541 59.8154 33.0923C56.0052 30.5844 52.0642 26.3224 50.57 24.5048C50.2338 24.1963 49.9162 24.3763 49.7995 24.5048C49.6034 24.7852 49.7178 25.0422 49.7995 25.1357C53.3576 29.5101 57.3056 32.6132 58.8348 33.618C59.2831 33.8704 59.1383 34.1817 59.0099 34.3058C57.748 34.9909 56.3844 35.5121 54.9475 35.8411C50.2898 33.9632 46.9979 29.5171 46.7877 29.2016C46.5776 28.8862 46.2274 28.5356 45.8772 28.8862C45.597 29.1666 45.7138 29.4703 45.8072 29.5872C47.6563 32.4193 50.9202 34.8098 52.321 35.651C52.6292 36.0436 52.3327 36.1986 52.1459 36.227Z" fill="#EE163B"/>
<path fill-rule="evenodd" clip-rule="evenodd" d="M67.3082 22.4512C67.4199 21.6856 67.4778 20.9024 67.4778 20.1058C67.4778 14.3741 64.4826 9.34189 59.9717 6.48821C59.3108 6.40653 57.6598 6.24316 56.3432 6.24316C55.0267 6.24316 53.1336 6.70992 52.3516 6.9433C52.0482 7.10666 51.3222 7.58742 50.846 8.20353C50.3698 8.81965 49.107 10.514 48.5351 11.2841C47.9865 12.0893 46.5392 13.8536 45.1387 14.4697C45.3371 15.0181 46.1471 16.101 47.7998 16.045C49.4524 15.989 51.0561 14.7848 51.6513 14.1897C52.1299 13.6179 53.5351 12.4743 55.3278 12.4743C56.3899 12.5327 59.2354 13.4545 62.1206 16.6751C65.0058 19.8957 66.2406 21.7044 66.4974 22.2062C66.6411 22.4745 67.0044 22.8993 67.3082 22.4512Z" fill="white"/>
<path d="M108.491 4.10107V36.3479H99.5258V18.555L93.4423 36.3479H85.9409L79.8118 18.4178V36.3479H70.8467V4.10107H81.6871L89.7831 25.0501L97.6962 4.10107H108.491Z" fill="white"/>
<path d="M122.559 11.2823V16.5424H132.851V23.3577H122.559V29.1667H134.223V36.3479H113.594V4.10107H134.223V11.2823H122.559Z" fill="white"/>
<path d="M147.618 11.2823V16.5424H157.91V23.3577H147.618V29.1667H159.282V36.3479H138.653V4.10107H159.282V11.2823H147.618Z" fill="white"/>
<path d="M188 4.10107V11.2365H179.401V36.3479H170.436V11.2365H161.928V4.10107H188Z" fill="white"/>
</svg>
